ply
format ascii 1.0
comment Created by Blender 2.79 (sub 0) - www.blender.org, source file: ''
element vertex 12
property float x
property float y
property float z
property float nx
property float ny
property float nz
element face 3
property list uchar uint vertex_indices
end_header
1.499999 1.999999 -0.042691 0.000000 0.000000 -1.000000
1.499999 -1.999999 -0.042691 0.000000 0.000000 -1.000000
-1.499999 -1.999999 -0.042691 0.000000 0.000000 -1.000000
-1.499999 2.000000 -0.042691 0.000000 0.000000 -1.000000
-1.499999 -1.999999 -0.042691 -1.000000 0.000000 -0.000000
-1.500000 -1.999998 1.857309 -1.000000 0.000000 -0.000000
-1.499999 1.999999 1.857309 -1.000000 0.000000 -0.000000
-1.499999 2.000000 -0.042691 -1.000000 0.000000 -0.000000
1.500000 1.999998 1.857309 0.000000 1.000000 0.000000
1.499999 1.999999 -0.042691 0.000000 1.000000 0.000000
-1.499999 2.000000 -0.042691 0.000000 1.000000 0.000000
-1.499999 1.999999 1.857309 0.000000 1.000000 0.000000
4 0 1 2 3
4 4 5 6 7
4 8 9 10 11
